<svg id="visual" viewBox="0 0 900 600" width="900" height="600" xmlns="http://www.w3.org/2000/svg" xmlns:xlink="http://www.w3.org/1999/xlink" version="1.1">
<rect x="0" y="0" width="900" height="600" fill="#001220"></rect>
<defs>
<linearGradient id="grad1_0" x1="33.3%" y1="100%" x2="100%" y2="0%">
<stop offset="20%" stop-color="#001220" stop-opacity="1"></stop>
<stop offset="80%" stop-color="#001220" stop-opacity="1"></stop>
</linearGradient></defs>
<defs>
<linearGradient id="grad2_0" x1="0%" y1="100%" x2="66.7%" y2="0%">
<stop offset="20%" stop-color="#001220" stop-opacity="1"></stop>
<stop offset="80%" stop-color="#001220" stop-opacity="1"></stop>
</linearGradient></defs>
<g transform="translate(900, 600)">
<path d="M-411 0C-415.7 -58.6 -420.3 -117.3 -399.7 -165.6C-379.1 -213.9 -333.3 -251.9 -291.3 -291.3C-249.4 -330.8 -211.3 -371.6 -163.4 -394.5C-115.5 -417.3 -57.8 -422.2 0 -427L0 0Z" fill="#ffecca">
</path>
</g>
<g transform="translate(0, 0)">
<path d="M432.7 0C421.5 55.7 410.2 111.5 388 160.7C365.8 210 332.6 252.8 294.9 294.9C257.1 336.9 214.8 378.3 164.9 398.2C115 418.1 57.5 416.5 0 415L0 0Z" fill="#ffecca">
</path>
</g>
</svg>